<svg xml:space="preserve" viewBox="232.448 198.656 557.056 593.92" width="557.056" y="0px" x="0px" xmlns:xlink="http://www.w3.org/1999/xlink" xmlns="http://www.w3.org/2000/svg" id="Layer_1" version="1.1" style="max-height: 500px" height="593.92">
<path d="M383.907074,730.199585 &#10;&#9;C311.694122,689.946533 265.908539,629.891296 250.442352,549.077087 &#10;&#9;C234.727188,466.961731 254.656357,392.739807 308.194763,328.260773 &#10;&#9;C343.033569,286.302612 387.269653,258.217682 439.854187,243.768250 &#10;&#9;C469.613403,235.590805 500.009552,232.968781 530.867920,235.576477 &#10;&#9;C572.949036,239.132614 612.363647,251.249054 647.707642,274.253693 &#10;&#9;C712.089722,316.158569 753.270203,374.596375 767.247925,450.624176 &#10;&#9;C781.236633,526.711792 764.741699,596.187073 717.897034,657.900635 &#10;&#9;C677.407227,711.242310 623.784363,744.431091 558.115051,756.869385 &#10;&#9;C497.329071,768.382751 439.204132,758.848816 383.907074,730.199585 &#10;M260.056427,494.503845 &#10;&#9;C259.702576,506.006897 260.017670,517.513184 261.499786,528.906799 &#10;&#9;C265.687744,561.100037 275.564209,591.449280 291.470581,619.832947 &#10;&#9;C342.797058,711.421021 447.931030,761.674805 551.356567,743.351013 &#10;&#9;C611.570251,732.682922 661.762329,703.738464 700.493164,656.413330 &#10;&#9;C747.534668,598.933472 765.745483,532.767273 754.331421,459.375671 &#10;&#9;C746.790222,410.885895 726.418640,367.712891 692.861206,331.557007 &#10;&#9;C631.788513,265.755188 556.377014,238.874435 467.716431,252.861603 &#10;&#9;C408.850403,262.148346 359.652588,290.533569 320.828278,335.987518 &#10;&#9;C282.132629,381.290833 261.706146,433.817139 260.056427,494.503845 &#10;z" stroke="none" opacity="1.000000" fill="#FFFFFF"/>
<path d="M534.606201,821.002930 &#10;&#9;C534.623108,818.838867 534.639648,817.174255 534.645996,815.509583 &#10;&#9;C534.683533,805.673279 537.941284,803.331604 547.912476,805.700134 &#10;&#9;C550.803101,806.386841 550.331909,808.481201 550.362061,810.368164 &#10;&#9;C550.535095,821.182739 550.273987,831.996765 550.792358,842.816895 &#10;&#9;C551.008667,847.331299 553.048523,848.661804 556.979919,848.523315 &#10;&#9;C560.303955,848.406311 563.626160,848.156006 566.950195,848.137512 &#10;&#9;C575.137878,848.091919 575.138123,848.131897 577.519592,855.516357 &#10;&#9;C579.402466,854.633301 579.805603,852.767151 580.502625,851.229065 &#10;&#9;C586.682739,837.589417 592.916626,823.971985 598.871338,810.233826 &#10;&#9;C600.349670,806.823181 602.220886,805.445068 605.967834,805.601440 &#10;&#9;C617.885620,806.099121 615.417908,803.473755 620.568787,815.421448 &#10;&#9;C626.365356,828.866638 632.260254,842.269409 638.081726,855.703918 &#10;&#9;C638.725220,857.188721 639.871216,858.571594 639.204407,861.026428 &#10;&#9;C634.718811,861.778015 629.959167,861.556763 625.249329,861.186707 &#10;&#9;C622.529724,860.973022 622.326965,858.204346 621.740906,856.253601 &#10;&#9;C620.606445,852.477478 618.428101,850.816772 614.406799,851.229980 &#10;&#9;C611.607178,851.517761 608.717407,851.555176 605.929932,851.207581 &#10;&#9;C599.733826,850.435059 595.148682,851.731873 593.813721,858.762512 &#10;&#9;C593.332703,861.295837 591.107361,861.963013 588.779419,861.938782 &#10;&#9;C571.989014,861.763794 555.199158,861.513794 538.408386,861.408142 &#10;&#9;C534.717346,861.384949 534.597961,859.171997 534.606140,856.460815 &#10;&#9;C534.641357,844.808044 534.608887,833.155151 534.606201,821.002930 &#10;M610.116211,838.701416 &#10;&#9;C612.448792,838.722595 614.231689,838.255493 613.081848,835.275574 &#10;&#9;C611.675537,831.631226 610.801270,827.746521 608.027344,823.826050 &#10;&#9;C606.105286,828.928833 604.408752,833.432983 602.710815,837.940796 &#10;&#9;C605.349243,839.082886 607.360535,838.576050 610.116211,838.701416 &#10;z" stroke="none" opacity="1.000000" fill="#FFFFFF"/>
<path d="M473.735657,856.819153 &#10;&#9;C473.713684,841.362976 473.877960,826.383667 473.587891,811.413269 &#10;&#9;C473.496613,806.702332 475.105408,805.408936 479.583130,805.578918 &#10;&#9;C487.558685,805.881531 495.554047,805.659607 503.541107,805.667908 &#10;&#9;C504.871735,805.669250 506.226166,805.574951 507.528839,805.781677 &#10;&#9;C513.765442,806.771118 519.911072,808.310669 522.460693,814.948059 &#10;&#9;C524.916016,821.340027 523.118652,827.030579 518.075623,831.572937 &#10;&#9;C518.414795,833.489258 520.161987,833.757507 521.232849,834.687561 &#10;&#9;C529.263977,841.662598 527.292236,854.884216 517.556641,859.138916 &#10;&#9;C512.405579,861.390015 506.908783,861.817017 501.427765,861.846741 &#10;&#9;C493.614075,861.889221 485.798920,861.479187 477.983093,861.410706 &#10;&#9;C475.072845,861.385193 473.598175,860.280457 473.735657,856.819153 &#10;M493.989502,849.694885 &#10;&#9;C497.617279,849.604492 501.282928,849.802002 504.860748,849.331604 &#10;&#9;C507.665009,848.962891 509.786377,847.165649 509.580780,843.930237 &#10;&#9;C509.385864,840.863525 507.016418,839.733337 504.468323,839.474243 &#10;&#9;C501.193542,839.141296 497.866882,839.201477 494.566864,839.277222 &#10;&#9;C492.577484,839.322937 489.590698,838.539917 489.651703,841.779602 &#10;&#9;C489.706329,844.684204 488.165466,848.772095 493.989502,849.694885 &#10;M491.444763,817.738831 &#10;&#9;C487.567596,824.358765 488.770905,826.780212 495.984497,826.836182 &#10;&#9;C497.808624,826.850342 499.638489,826.870483 501.456482,826.749512 &#10;&#9;C504.107819,826.572998 506.517548,825.850769 506.698883,822.624084 &#10;&#9;C506.891418,819.197815 504.418030,817.880310 501.669525,817.563293 &#10;&#9;C498.562042,817.204895 495.380859,817.485596 491.444763,817.738831 &#10;z" stroke="none" opacity="1.000000" fill="#FFFFFF"/>
<path d="M286.893616,861.368774 &#10;&#9;C274.461914,861.268921 275.839203,862.717590 275.754395,850.649231 &#10;&#9;C275.661865,837.487427 275.880371,824.321350 275.621307,811.163879 &#10;&#9;C275.532990,806.678955 277.098053,805.396057 281.410400,805.572327 &#10;&#9;C289.062347,805.885071 296.759247,805.308838 304.393127,805.796387 &#10;&#9;C313.023773,806.347473 321.091797,808.819946 324.404968,818.023193 &#10;&#9;C327.401062,826.345642 326.182678,836.973999 317.803925,842.705994 &#10;&#9;C317.414764,842.972168 317.174347,843.455627 316.527100,844.254456 &#10;&#9;C319.879456,849.511047 323.303925,854.880676 327.166809,860.937805 &#10;&#9;C321.457428,861.731934 316.689240,861.390137 311.935638,861.240906 &#10;&#9;C310.170013,861.185486 309.461334,859.672302 308.652466,858.453430 &#10;&#9;C306.628052,855.402954 304.575012,852.360901 302.753510,849.189209 &#10;&#9;C300.716766,845.642639 297.425323,845.954712 294.389252,846.588928 &#10;&#9;C291.110474,847.273804 292.600891,850.369141 292.308380,852.480103 &#10;&#9;C292.127106,853.788086 292.173492,855.149780 292.288025,856.472534 &#10;&#9;C292.602753,860.107971 291.073547,861.801453 286.893616,861.368774 &#10;M305.969330,832.726135 &#10;&#9;C308.352325,831.466553 309.726562,829.574158 309.892395,826.808289 &#10;&#9;C310.090271,823.507080 309.104645,820.799561 305.912201,819.491211 &#10;&#9;C301.797211,817.804749 297.503082,817.834595 293.266083,819.031067 &#10;&#9;C292.781982,819.167786 292.465576,820.394714 292.321014,821.163086 &#10;&#9;C290.265015,832.092529 292.863617,834.876038 303.808350,833.504395 &#10;&#9;C304.293427,833.443604 304.756836,833.209900 305.969330,832.726135 &#10;z" stroke="none" opacity="1.000000" fill="#FFFFFF"/>
<path d="M762.035278,805.654785 &#10;&#9;C770.487305,806.017761 778.497437,804.798462 786.406860,806.598999 &#10;&#9;C793.942688,808.314392 799.877014,812.289307 801.741211,819.947998 &#10;&#9;C803.665283,827.852600 802.890625,835.678772 795.799194,841.258911 &#10;&#9;C793.170227,843.327515 793.360718,845.066589 795.044128,847.539429 &#10;&#9;C797.843628,851.651917 800.397766,855.931458 803.353943,860.613892 &#10;&#9;C798.978760,862.166321 794.833679,860.877930 790.874878,861.423706 &#10;&#9;C785.204895,862.205383 784.422607,857.308899 781.954712,854.239624 &#10;&#9;C779.508911,851.198120 778.909668,846.178772 773.342285,846.326355 &#10;&#9;C770.553223,846.400330 768.844360,847.164307 768.714539,850.169189 &#10;&#9;C768.685913,850.832275 768.599976,851.498230 768.477600,852.151062 &#10;&#9;C767.939575,855.020691 769.837830,859.016296 767.112610,860.597717 &#10;&#9;C763.701355,862.577454 759.314636,861.293884 755.345764,861.248291 &#10;&#9;C753.119202,861.222717 752.670227,859.677429 752.668091,857.835938 &#10;&#9;C752.649048,841.688965 752.652466,825.541931 752.585449,809.395203 &#10;&#9;C752.573730,806.584351 753.864319,805.507568 756.545776,805.642883 &#10;&#9;C758.206177,805.726807 759.874268,805.656189 762.035278,805.654785 &#10;M772.850769,818.384888 &#10;&#9;C770.287781,818.232239 768.508972,819.262146 768.554260,821.974060 &#10;&#9;C768.618591,825.827332 767.449341,829.882446 770.024719,833.409607 &#10;&#9;C770.168884,833.607056 770.649658,833.617920 770.973145,833.616028 &#10;&#9;C774.439758,833.595764 777.939758,834.147888 781.350220,833.096863 &#10;&#9;C784.571533,832.104065 786.456360,829.834717 786.500427,826.540955 &#10;&#9;C786.542847,823.372681 785.105286,820.802979 782.018677,819.394104 &#10;&#9;C779.339905,818.171509 776.511780,818.389160 772.850769,818.384888 &#10;z" stroke="none" opacity="1.000000" fill="#FFFFFF"/>
<path d="M698.667114,838.999878 &#10;&#9;C698.651733,829.177429 698.755005,819.852600 698.563110,810.533813 &#10;&#9;C698.487549,806.861877 699.786011,805.571777 703.469482,805.612427 &#10;&#9;C715.286926,805.742920 727.109253,805.705872 738.925537,805.498718 &#10;&#9;C742.295654,805.439636 743.208496,806.756653 743.297302,809.871704 &#10;&#9;C743.533447,818.160156 743.494324,818.312988 735.349854,818.316162 &#10;&#9;C729.856262,818.318298 724.360840,818.402893 718.869873,818.283813 &#10;&#9;C715.752319,818.216248 714.363037,819.320862 714.322327,822.619202 &#10;&#9;C714.280640,825.985840 715.759766,826.980347 718.839478,826.925232 &#10;&#9;C724.164368,826.829834 729.494324,827.025146 734.819519,826.936218 &#10;&#9;C740.676025,826.838501 739.017151,831.118225 739.339111,834.332458 &#10;&#9;C739.691895,837.853394 738.537476,839.569031 734.646851,839.389343 &#10;&#9;C729.498413,839.151611 724.325928,839.487427 719.169067,839.360779 &#10;&#9;C715.868713,839.279724 714.358643,840.336670 714.302795,843.914856 &#10;&#9;C714.243774,847.695435 715.758728,848.892639 719.334229,848.815552 &#10;&#9;C725.989502,848.672058 732.656982,848.988953 739.307617,848.765320 &#10;&#9;C743.937561,848.609619 744.473022,851.181519 744.267639,854.786316 &#10;&#9;C744.082092,858.042969 744.971802,861.574036 739.534668,861.460938 &#10;&#9;C727.387207,861.208252 715.231140,861.304504 703.079224,861.375732 &#10;&#9;C699.920166,861.394226 698.572021,860.222961 698.650452,856.978516 &#10;&#9;C698.791260,851.155518 698.675903,845.326416 698.667114,838.999878 &#10;z" stroke="none" opacity="1.000000" fill="#FFFFFF"/>
<path d="M386.825806,861.391846 &#10;&#9;C384.697021,861.390137 383.012726,861.226501 381.370148,861.418823 &#10;&#9;C377.736908,861.844238 375.577637,860.292786 374.946594,856.783386 &#10;&#9;C374.092865,852.035278 371.229797,850.632629 366.710846,851.134277 &#10;&#9;C363.914185,851.444763 361.014801,851.497009 358.232239,851.129578 &#10;&#9;C352.271881,850.342590 348.201599,851.984680 346.929382,858.408081 &#10;&#9;C346.650848,859.814514 345.907410,861.416382 344.016235,861.357239 &#10;&#9;C339.571930,861.218384 335.078369,861.889771 330.411774,860.791016 &#10;&#9;C330.787354,855.800232 333.492889,851.860596 335.275604,847.658203 &#10;&#9;C340.669952,834.941956 346.442505,822.386414 351.869659,809.683655 &#10;&#9;C353.187836,806.598450 354.998688,805.461609 358.305634,805.573547 &#10;&#9;C372.101715,806.040649 368.478516,803.522400 373.924377,816.018005 &#10;&#9;C379.642944,829.139343 385.362610,842.260315 391.051300,855.394592 &#10;&#9;C391.760803,857.032654 392.955078,858.563049 392.542969,860.582397 &#10;&#9;C390.942932,861.881592 389.044159,861.195374 386.825806,861.391846 &#10;M359.915100,826.882385 &#10;&#9;C358.935455,830.598083 356.188751,833.824341 356.538940,838.092102 &#10;&#9;C360.028717,838.764954 363.201660,839.199219 366.783966,837.597717 &#10;&#9;C365.410278,833.654907 364.174011,829.924316 362.804382,826.243347 &#10;&#9;C361.975677,824.016174 360.996033,824.081665 359.915100,826.882385 &#10;z" stroke="none" opacity="1.000000" fill="#FFFFFF"/>
<path d="M691.176270,850.215088 &#10;&#9;C691.318726,853.901367 691.318726,857.203796 691.318726,860.990662 &#10;&#9;C682.979309,861.676392 674.906433,862.028198 666.801697,861.835754 &#10;&#9;C660.818237,861.693665 654.831482,861.652771 648.851379,861.427124 &#10;&#9;C646.380005,861.333984 643.046448,863.248291 641.694763,859.940002 &#10;&#9;C640.198425,856.277649 640.581970,852.416016 643.330078,849.144104 &#10;&#9;C649.435425,841.875183 655.553040,834.616333 661.614807,827.311096 &#10;&#9;C663.398438,825.161621 665.459778,823.173401 666.483826,820.571411 &#10;&#9;C665.168274,818.161438 663.012390,818.458923 661.091797,818.419861 &#10;&#9;C656.262634,818.321655 651.422302,818.171631 646.602051,818.389038 &#10;&#9;C641.156128,818.634705 641.997803,814.875854 641.954346,811.629883 &#10;&#9;C641.911072,808.403259 641.582397,805.392883 646.663879,805.524475 &#10;&#9;C658.815979,805.839172 670.982422,805.562805 683.141541,805.678833 &#10;&#9;C685.465942,805.700928 688.926208,804.097412 689.895325,806.938416 &#10;&#9;C691.025879,810.252563 691.383850,814.245728 688.821899,817.435059 &#10;&#9;C684.653076,822.624817 680.312866,827.676453 676.090454,832.823730 &#10;&#9;C672.225586,837.535095 668.421021,842.295837 664.393555,847.277649 &#10;&#9;C668.424011,849.576538 671.989441,848.395081 675.369995,848.745117 &#10;&#9;C680.578552,849.284546 685.942993,847.579834 691.176270,850.215088 &#10;z" stroke="none" opacity="1.000000" fill="#FFFFFF"/>
<path d="M253.334625,821.086731 &#10;&#9;C253.287415,833.148193 253.177353,844.814453 253.322571,856.477539 &#10;&#9;C253.367950,860.122070 252.151199,861.492920 248.426132,861.419312 &#10;&#9;C234.942719,861.152893 236.989609,862.747681 236.835007,850.087891 &#10;&#9;C236.727142,841.256958 236.700912,832.421631 236.864929,823.592468 &#10;&#9;C236.933456,819.902344 235.314026,818.410339 231.849060,818.412842 &#10;&#9;C230.182755,818.414001 228.516434,818.382080 226.850098,818.377319 &#10;&#9;C220.467346,818.359009 217.535706,813.605347 220.081619,807.530029 &#10;&#9;C220.726776,805.990601 221.884933,805.704041 223.268875,805.702698 &#10;&#9;C237.766846,805.688477 252.264893,805.710632 266.762726,805.663879 &#10;&#9;C269.316833,805.655640 270.413940,806.773560 270.321167,809.280701 &#10;&#9;C270.259583,810.944458 270.240387,812.618530 270.351105,814.278015 &#10;&#9;C270.551117,817.276184 269.227142,818.532959 266.237610,818.407104 &#10;&#9;C263.410187,818.287903 260.570557,818.335266 257.740906,818.436890 &#10;&#9;C255.985016,818.499939 253.890610,818.134888 253.334625,821.086731 &#10;z" stroke="none" opacity="1.000000" fill="#FFFFFF"/>
<path d="M436.776367,805.659241 &#10;&#9;C441.296143,805.234436 441.892517,807.767822 441.887756,810.955322 &#10;&#9;C441.873047,820.768799 441.896149,830.582458 441.939362,840.395935 &#10;&#9;C441.975800,848.677063 441.997314,848.674561 450.037903,848.676025 &#10;&#9;C454.528900,848.676880 459.023804,848.804138 463.509613,848.654602 &#10;&#9;C466.848389,848.543335 467.820190,850.142273 467.816864,853.199402 &#10;&#9;C467.807892,861.414124 467.867432,861.205322 459.620209,861.479065 &#10;&#9;C450.806641,861.771729 442.010132,861.636414 433.202576,861.444275 &#10;&#9;C425.712799,861.280884 425.689117,861.387634 425.683411,854.119263 &#10;&#9;C425.672424,840.147217 425.678894,826.175110 425.697052,812.203064 &#10;&#9;C425.705566,805.635437 425.725403,805.635315 432.314484,805.646362 &#10;&#9;C433.645142,805.648621 434.975830,805.652344 436.776367,805.659241 &#10;z" stroke="none" opacity="1.000000" fill="#FFFFFF"/>
<path d="M404.155701,861.363403 &#10;&#9;C399.636108,861.880676 397.789520,860.112366 398.034607,856.034424 &#10;&#9;C398.943115,840.918335 397.934875,825.800964 397.993042,810.683472 &#10;&#9;C398.008026,806.792297 399.574860,805.521912 403.408356,805.614502 &#10;&#9;C416.314697,805.926392 414.173676,804.157410 414.282623,816.381531 &#10;&#9;C414.393768,828.849915 414.306183,841.320129 414.301849,853.789551 &#10;&#9;C414.299225,861.338623 414.296021,861.338684 406.623444,861.361389 &#10;&#9;C405.958405,861.363342 405.293335,861.363464 404.155701,861.363403 &#10;z" stroke="none" opacity="1.000000" fill="#FFFFFF"/>
<path d="M987.485596,59.135651 &#10;&#9;C978.257812,62.542568 969.879150,59.989883 965.348755,52.655613 &#10;&#9;C960.708557,45.143627 961.856384,34.087349 967.898499,28.094013 &#10;&#9;C974.007996,22.033813 984.014709,21.114939 991.392822,26.014053 &#10;&#9;C992.625549,26.832611 993.795410,27.849960 994.724792,28.994333 &#10;&#9;C995.823608,30.347380 997.736206,32.283184 995.736084,33.658646 &#10;&#9;C993.876343,34.937561 991.495911,37.501839 988.694763,34.700439 &#10;&#9;C987.761658,33.767288 986.768311,32.812241 985.628296,32.182758 &#10;&#9;C981.353516,29.822508 975.922119,31.274487 973.305298,35.354095 &#10;&#9;C970.192871,40.206203 971.247559,47.305733 975.591064,50.740704 &#10;&#9;C979.366882,53.726753 985.013611,53.430840 988.337708,50.017418 &#10;&#9;C988.754944,49.588974 988.909302,48.904491 989.166016,48.378635 &#10;&#9;C987.885742,46.773552 986.254883,47.299126 984.856934,47.303825 &#10;&#9;C982.341736,47.312283 981.196655,46.228184 981.153198,43.729656 &#10;&#9;C981.106262,41.025692 982.287964,39.759460 985.040894,39.792667 &#10;&#9;C1001.093933,39.986305 997.946777,38.001369 998.286194,51.920658 &#10;&#9;C998.302490,52.586800 998.358276,53.263798 998.269104,53.918526 &#10;&#9;C997.970032,56.116505 999.288879,58.942158 996.718384,60.300449 &#10;&#9;C994.115295,61.675930 991.652649,61.240772 989.971985,58.294811 &#10;&#9;C989.590027,57.625263 988.500122,58.573166 987.485596,59.135651 &#10;z" stroke="none" opacity="1.000000" fill="#FFFFFF"/>
<path d="M908.893188,22.775204 &#10;&#9;C911.295288,23.153145 913.293823,23.381317 915.212158,23.904013 &#10;&#9;C921.976318,25.747055 922.630920,27.607723 918.614319,33.950531 &#10;&#9;C914.850037,33.430649 911.457764,30.668640 907.319824,31.230604 &#10;&#9;C905.658997,31.456152 903.629761,31.274426 903.232605,33.283554 &#10;&#9;C902.831787,35.311516 904.746887,36.097485 906.281128,36.647263 &#10;&#9;C908.936951,37.598999 911.699219,38.249702 914.375061,39.150730 &#10;&#9;C920.036499,41.057045 922.426514,44.332737 922.297119,49.828899 &#10;&#9;C922.168640,55.289940 919.133484,58.781376 913.433838,60.396194 &#10;&#9;C908.015930,61.931187 902.846375,60.981136 897.824463,58.998791 &#10;&#9;C891.403564,56.464172 891.021179,54.526127 895.559998,48.611568 &#10;&#9;C899.152161,49.578125 902.054016,52.624756 906.059082,52.621487 &#10;&#9;C908.499939,52.619492 911.721619,53.397190 912.352173,50.193958 &#10;&#9;C912.973083,47.039806 909.636108,47.007957 907.569031,46.285934 &#10;&#9;C905.218201,45.464825 902.779419,44.898895 900.413635,44.116776 &#10;&#9;C895.598022,42.524673 892.882263,39.122902 892.925903,34.079037 &#10;&#9;C892.967651,29.257450 895.720398,26.026196 900.173828,24.293133 &#10;&#9;C902.826599,23.260767 905.563416,22.569109 908.893188,22.775204 &#10;z" stroke="none" opacity="1.000000" fill="#FFFFFF"/>
<path d="M949.247681,55.155346 &#10;&#9;C948.242371,58.805080 946.900330,61.086849 942.727356,61.029327 &#10;&#9;C938.648193,60.973091 937.332703,58.672874 936.121643,55.531517 &#10;&#9;C932.771423,46.841606 929.259399,38.214203 925.879150,29.535685 &#10;&#9;C925.240784,27.896677 924.133423,26.252661 925.009827,24.351288 &#10;&#9;C932.687439,22.719538 933.229797,23.052090 935.672119,29.787920 &#10;&#9;C937.702271,35.387043 939.895264,40.927116 942.342224,47.349121 &#10;&#9;C946.093994,41.444057 947.338867,35.428524 949.504028,29.826506 &#10;&#9;C952.321289,22.537453 952.229248,22.501871 961.154480,24.237270 &#10;&#9;C957.193909,34.508396 953.284180,44.647472 949.247681,55.155346 &#10;z" stroke="none" opacity="1.000000" fill="#FFFFFF"/>
<path d="M448.748108,901.313049 &#10;&#9;C446.792877,898.820557 445.048553,896.621277 442.279938,893.130554 &#10;&#9;C442.279938,897.126709 442.287933,899.691467 442.277496,902.256042 &#10;&#9;C442.268799,904.388306 442.047852,906.308228 439.148987,906.261108 &#10;&#9;C436.313782,906.214966 435.995331,904.269104 435.973022,902.174744 &#10;&#9;C435.919952,897.187561 435.919128,892.199036 435.977661,887.211975 &#10;&#9;C435.996582,885.601135 435.726929,883.636536 437.754303,882.976929 &#10;&#9;C439.797150,882.312256 441.658264,882.900146 443.188446,884.517334 &#10;&#9;C445.913086,887.396912 447.583618,891.167114 451.072998,893.893738 &#10;&#9;C452.201355,891.727295 451.710999,889.570984 451.902832,887.531799 &#10;&#9;C452.099915,885.437134 451.676636,882.881348 454.965393,882.886169 &#10;&#9;C458.536072,882.891418 458.137970,885.610657 458.170044,887.888672 &#10;&#9;C458.233276,892.376892 458.250366,896.867554 458.168854,901.355103 &#10;&#9;C458.137360,903.087830 458.711884,905.298584 456.415283,906.072876 &#10;&#9;C454.114380,906.848633 452.199036,905.980164 450.810455,903.956360 &#10;&#9;C450.247498,903.135803 449.579315,902.387451 448.748108,901.313049 &#10;z" stroke="none" opacity="1.000000" fill="#FFFFFF"/>
<path d="M691.306885,903.851929 &#10;&#9;C690.011414,906.747559 687.694275,907.125000 685.643372,905.017944 &#10;&#9;C684.849365,904.202148 684.328613,903.114929 683.711914,902.133545 &#10;&#9;C682.940552,900.906067 681.890564,900.245300 680.402954,900.370300 &#10;&#9;C678.646423,900.518066 678.326172,901.775391 678.257874,903.182068 &#10;&#9;C678.147217,905.463074 676.989075,906.432861 674.716248,906.255981 &#10;&#9;C672.196838,906.059937 671.902832,904.254150 671.883362,902.358704 &#10;&#9;C671.828796,897.050598 671.869141,891.741577 671.856384,886.432922 &#10;&#9;C671.850586,884.007690 672.953613,882.698181 675.458618,882.742249 &#10;&#9;C678.441467,882.794800 681.479065,882.506714 684.396240,882.972168 &#10;&#9;C691.387329,884.087585 694.466797,890.267761 690.801819,896.304260 &#10;&#9;C689.062866,899.168335 689.548706,901.179016 691.306885,903.851929 &#10;M686.019714,892.850098 &#10;&#9;C687.142212,888.396057 684.104431,888.294067 681.129578,888.247986 &#10;&#9;C678.164490,888.202026 677.995728,890.326538 678.371887,892.394104 &#10;&#9;C679.022400,895.969360 681.798096,894.619202 683.939453,894.457092 &#10;&#9;C684.515198,894.413574 685.047485,893.795654 686.019714,892.850098 &#10;z" stroke="none" opacity="1.000000" fill="#FFFFFF"/>
<path d="M367.164673,905.913696 &#10;&#9;C352.635498,907.497742 352.369659,907.489258 352.821259,893.381287 &#10;&#9;C352.933777,889.866150 349.287628,883.953613 356.195282,882.873352 &#10;&#9;C366.611115,881.244568 373.538727,884.761414 375.465393,891.759644 &#10;&#9;C377.141266,897.846985 374.400024,902.710144 367.164673,905.913696 &#10;M358.805023,889.414673 &#10;&#9;C358.678680,892.394836 358.520721,895.374084 358.439972,898.355469 &#10;&#9;C358.402130,899.754272 358.750397,900.946350 360.330048,901.483032 &#10;&#9;C363.104614,902.425781 368.005798,900.211365 369.188263,897.394348 &#10;&#9;C370.648651,893.915222 369.097168,889.933044 365.636108,888.713013 &#10;&#9;C363.578491,887.987732 361.409302,887.813293 358.805023,889.414673 &#10;z" stroke="none" opacity="1.000000" fill="#FFFFFF"/>
<path d="M529.773926,882.737305 &#10;&#9;C540.033752,883.619873 542.943665,888.835449 538.338623,897.502625 &#10;&#9;C537.605774,898.881897 537.580750,899.906799 538.321350,901.174988 &#10;&#9;C539.059265,902.438538 540.281067,903.489441 540.215515,905.138245 &#10;&#9;C540.209045,905.301208 540.141602,905.461853 540.072021,905.749207 &#10;&#9;C537.046509,907.076416 534.706787,906.313721 533.024841,903.382080 &#10;&#9;C531.997864,901.592102 530.802490,899.980530 528.371033,900.344849 &#10;&#9;C525.974670,900.703796 526.503540,902.736572 526.224304,904.260925 &#10;&#9;C525.908936,905.982605 524.731018,906.270203 523.283569,906.208679 &#10;&#9;C521.726746,906.142578 520.763672,905.392212 520.722046,903.779297 &#10;&#9;C520.563293,897.631042 520.393921,891.482361 520.328430,885.332764 &#10;&#9;C520.308533,883.469177 521.602539,882.780396 523.331360,882.773682 &#10;&#9;C525.327576,882.765869 527.323853,882.749695 529.773926,882.737305 &#10;M533.757812,889.453491 &#10;&#9;C531.198364,888.002563 528.534607,886.894226 526.551636,890.081299 &#10;&#9;C525.937500,891.068359 525.953918,892.830261 527.000061,893.846191 &#10;&#9;C528.497253,895.300232 530.479858,894.907959 532.187561,894.375183 &#10;&#9;C534.217651,893.741699 535.056580,892.207458 533.757812,889.453491 &#10;z" stroke="none" opacity="1.000000" fill="#FFFFFF"/>
<path d="M423.904144,888.225464 &#10;&#9;C421.156219,888.615417 418.489075,887.315796 416.542938,889.574280 &#10;&#9;C417.049622,892.471497 419.268280,891.527588 420.894623,891.779480 &#10;&#9;C423.164520,892.131104 426.751129,890.809814 426.838684,894.439697 &#10;&#9;C426.942963,898.763794 422.974335,896.650024 420.733551,897.233643 &#10;&#9;C420.420532,897.315186 420.071014,897.245300 419.741058,897.275146 &#10;&#9;C418.447845,897.392090 416.774170,897.187134 416.650574,898.992859 &#10;&#9;C416.503204,901.146606 418.451050,901.140137 419.839111,901.257568 &#10;&#9;C421.809113,901.424133 423.809570,901.187256 425.793304,901.246948 &#10;&#9;C427.479889,901.297668 428.668060,902.018372 428.579865,903.971924 &#10;&#9;C428.504303,905.645630 427.485748,906.307861 425.969116,906.312561 &#10;&#9;C421.655060,906.325867 417.340363,906.328552 413.026917,906.266052 &#10;&#9;C410.499878,906.229370 410.169312,904.297302 410.137268,902.423828 &#10;&#9;C410.049255,897.281677 410.084106,892.137390 410.080719,886.993958 &#10;&#9;C410.078644,883.866699 411.634735,882.559570 414.763428,882.708130 &#10;&#9;C417.909607,882.857544 421.069031,882.705872 424.221863,882.746094 &#10;&#9;C426.067535,882.769592 428.086151,882.724121 428.128296,885.385498 &#10;&#9;C428.169495,887.988403 426.257568,888.134216 423.904144,888.225464 &#10;z" stroke="none" opacity="1.000000" fill="#FFFFFF"/>
<path d="M333.975830,902.043579 &#10;&#9;C331.221832,902.091125 328.935852,901.948303 327.656189,904.685913 &#10;&#9;C326.580933,906.986084 324.512238,906.722595 322.263550,905.861328 &#10;&#9;C321.758362,902.553833 323.761993,899.932129 324.897797,897.105286 &#10;&#9;C326.449219,893.244080 328.173309,889.452332 329.814148,885.626831 &#10;&#9;C330.517914,883.986145 331.531982,882.856262 333.508331,882.794312 &#10;&#9;C335.574646,882.729553 337.095459,883.470581 337.919861,885.374207 &#10;&#9;C340.748322,891.905273 343.541870,898.451416 346.462616,905.257141 &#10;&#9;C343.645294,906.535095 341.378082,907.068909 339.930145,904.529602 &#10;&#9;C338.583771,902.168457 336.586090,902.091431 333.975830,902.043579 &#10;z" stroke="none" opacity="1.000000" fill="#FFFFFF"/>
<path d="M616.719849,894.010620 &#10;&#9;C616.867676,881.395874 615.505615,882.786499 627.299316,882.877136 &#10;&#9;C629.898682,882.897095 634.428040,880.982239 634.676025,885.287598 &#10;&#9;C634.947449,889.997925 630.269958,887.594910 627.738586,888.220337 &#10;&#9;C626.254883,888.586914 624.304626,887.690857 623.437805,890.137085 &#10;&#9;C624.687683,892.554321 627.103882,891.493591 629.029114,891.744141 &#10;&#9;C630.956787,891.995117 633.378906,891.514160 633.487183,894.432251 &#10;&#9;C633.598755,897.439819 631.193176,896.955078 629.246399,897.244629 &#10;&#9;C627.190552,897.550354 623.545105,896.021118 623.592529,899.295227 &#10;&#9;C623.644531,902.892273 627.429749,901.159668 629.630249,901.555847 &#10;&#9;C630.758118,901.758789 631.948792,901.588562 633.108032,901.647766 &#10;&#9;C634.512390,901.719604 635.175720,902.525879 635.174072,903.911194 &#10;&#9;C635.172485,905.288818 634.487732,906.190186 633.121216,906.204712 &#10;&#9;C628.478699,906.254211 623.833435,906.270447 619.192688,906.156982 &#10;&#9;C617.269470,906.109924 616.854370,904.561096 616.817566,902.965942 &#10;&#9;C616.752625,900.145447 616.749512,897.323547 616.719849,894.010620 &#10;z" stroke="none" opacity="1.000000" fill="#FFFFFF"/>
<path d="M566.513245,885.861450 &#10;&#9;C565.481201,888.842651 563.199463,887.964966 561.335449,888.222778 &#10;&#9;C559.168579,888.522522 556.660522,887.310791 554.765198,889.700500 &#10;&#9;C555.930054,892.832214 558.634888,891.441711 560.665283,891.720215 &#10;&#9;C562.735596,892.004211 565.364807,891.366699 565.202942,894.764709 &#10;&#9;C565.056152,897.845459 562.589966,897.135437 560.715027,897.273804 &#10;&#9;C559.556274,897.359436 558.385742,897.285767 557.227417,897.373962 &#10;&#9;C555.710571,897.489380 554.613953,898.223633 554.809814,899.882507 &#10;&#9;C554.985962,901.374390 556.245178,901.522400 557.470215,901.475830 &#10;&#9;C559.624023,901.394043 561.778442,901.185669 563.929443,901.221313 &#10;&#9;C565.540222,901.248047 566.902161,901.896912 566.925842,903.833740 &#10;&#9;C566.950256,905.833984 565.586731,906.331238 563.937012,906.340271 &#10;&#9;C559.947510,906.362183 555.957642,906.327087 551.967957,906.334595 &#10;&#9;C549.672241,906.338867 548.696045,905.169067 548.712585,902.930664 &#10;&#9;C548.754517,897.278503 548.734070,891.625977 548.769043,885.973755 &#10;&#9;C548.779236,884.326477 549.330994,882.913330 551.244141,882.873596 &#10;&#9;C555.562134,882.783813 559.882935,882.795044 564.202271,882.820984 &#10;&#9;C565.876831,882.831055 566.456360,883.970642 566.513245,885.861450 &#10;z" stroke="none" opacity="1.000000" fill="#FFFFFF"/>
<path d="M663.058716,899.099854 &#10;&#9;C663.871155,901.305725 664.538330,903.150085 665.287720,905.221741 &#10;&#9;C662.733154,906.670898 660.935730,906.677429 658.998901,904.512085 &#10;&#9;C655.690186,900.812927 650.390930,900.907837 647.107788,904.468079 &#10;&#9;C645.332458,906.393250 645.332397,906.393188 640.459229,905.492126 &#10;&#9;C643.660461,898.279175 646.532593,891.134583 650.010315,884.298035 &#10;&#9;C651.431885,881.503418 655.653625,882.265503 657.208984,885.477539 &#10;&#9;C659.304016,889.804016 661.029419,894.309631 663.058716,899.099854 &#10;M654.799255,894.354248 &#10;&#9;C654.348938,893.379761 654.228699,892.110840 652.720581,892.018311 &#10;&#9;C651.699219,893.284546 650.664673,894.518555 651.665100,896.818054 &#10;&#9;C652.641479,895.783264 654.920715,898.132690 654.799255,894.354248 &#10;z" stroke="none" opacity="1.000000" fill="#FFFFFF"/>
<path d="M606.938477,884.972900 &#10;&#9;C608.780273,888.782471 606.765747,889.366516 603.986877,888.851562 &#10;&#9;C602.191711,888.518860 600.454224,887.864929 598.594543,888.110474 &#10;&#9;C594.813293,888.609863 593.075928,890.955139 593.070923,894.607422 &#10;&#9;C593.065491,898.567749 595.349060,900.834351 599.066528,901.394836 &#10;&#9;C601.780579,901.804016 602.802490,899.955139 603.096863,897.448547 &#10;&#9;C603.309326,895.639587 603.632812,893.573975 606.290344,893.974609 &#10;&#9;C608.666931,894.332947 608.111084,896.342957 608.327332,897.909851 &#10;&#9;C608.967896,902.550598 607.559692,905.501160 602.451477,906.435486 &#10;&#9;C596.558655,907.513489 591.283020,905.856689 588.428955,901.361084 &#10;&#9;C585.870117,897.330444 585.980408,891.391052 588.683167,887.676270 &#10;&#9;C591.784302,883.414001 598.126831,881.450745 603.508911,883.173584 &#10;&#9;C604.601318,883.523315 605.590027,884.196899 606.938477,884.972900 &#10;z" stroke="none" opacity="1.000000" fill="#FFFFFF"/>
<path d="M503.166931,900.770386 &#10;&#9;C505.681152,899.281555 505.773071,897.119629 505.794006,894.909119 &#10;&#9;C505.822327,891.914734 505.835297,888.918579 505.959778,885.927490 &#10;&#9;C506.039062,884.022644 506.945190,882.807129 509.073517,882.862061 &#10;&#9;C510.927002,882.909851 511.852905,883.977783 511.936157,885.662048 &#10;&#9;C512.157593,890.140869 512.659424,894.667542 511.640167,899.084229 &#10;&#9;C510.406708,904.428955 505.591003,907.447998 499.856995,906.787598 &#10;&#9;C494.373291,906.156006 490.998230,902.790466 490.730377,897.329163 &#10;&#9;C490.543121,893.512146 490.688995,889.677856 490.715790,885.851562 &#10;&#9;C490.727692,884.156921 491.356384,882.962830 493.293945,882.879639 &#10;&#9;C495.475861,882.785950 496.244202,884.007812 496.273010,885.962524 &#10;&#9;C496.319611,889.123169 496.165710,892.301758 496.453857,895.439941 &#10;&#9;C496.794983,899.154236 498.295929,901.918091 503.166931,900.770386 &#10;z" stroke="none" opacity="1.000000" fill="#FFFFFF"/>
<path d="M395.574432,890.581726 &#10;&#9;C397.492279,887.015869 397.218719,881.432129 404.549530,883.444031 &#10;&#9;C401.653107,890.769775 399.194885,897.928589 395.958069,904.716064 &#10;&#9;C394.641632,907.476562 390.547089,907.474976 389.279938,905.010254 &#10;&#9;C385.761932,898.167297 383.132477,890.867554 379.799561,882.906555 &#10;&#9;C391.085602,882.260925 387.372314,893.336853 392.682892,896.550171 &#10;&#9;C394.325653,895.118286 394.405884,892.780090 395.574432,890.581726 &#10;z" stroke="none" opacity="1.000000" fill="#FFFFFF"/>
<path d="M477.337738,898.959229 &#10;&#9;C477.335236,900.436462 477.339874,901.432312 477.327484,902.427917 &#10;&#9;C477.303741,904.340454 477.200256,906.158875 474.562531,906.213501 &#10;&#9;C471.929047,906.268005 471.692444,904.523315 471.678986,902.560547 &#10;&#9;C471.656219,899.241516 471.550720,895.920227 471.640625,892.604248 &#10;&#9;C471.714203,889.890076 471.082825,888.037231 467.857605,888.155212 &#10;&#9;C465.985474,888.223755 464.629120,887.525513 464.627716,885.314575 &#10;&#9;C464.626221,882.924683 466.249664,882.742371 468.013275,882.740356 &#10;&#9;C472.659729,882.735046 477.306274,882.730286 481.952545,882.761475 &#10;&#9;C483.435699,882.771484 484.557220,883.376892 484.683136,885.025635 &#10;&#9;C484.795532,886.497620 484.261963,888.029114 482.696991,887.920410 &#10;&#9;C476.559570,887.494202 477.238800,891.641052 477.335968,895.490662 &#10;&#9;C477.361053,896.485718 477.338043,897.482056 477.337738,898.959229 &#10;z" stroke="none" opacity="1.000000" fill="#FFFFFF"/>
<path d="M507.162720,298.486938 &#10;&#9;C506.414337,300.583496 504.884338,300.856659 503.419739,301.121460 &#10;&#9;C495.406616,302.570404 488.142731,305.845642 481.590973,310.554749 &#10;&#9;C479.121979,312.329346 477.510651,312.035339 475.595886,310.063293 &#10;&#9;C472.346527,306.716797 469.025116,303.439606 465.700958,300.166779 &#10;&#9;C463.999451,298.491577 462.185486,297.627960 460.032074,299.566925 &#10;&#9;C457.813049,301.564972 457.982239,303.676331 459.827637,305.670868 &#10;&#9;C462.994385,309.093475 466.222351,312.467957 469.574890,315.707092 &#10;&#9;C471.744690,317.803528 472.057709,319.580566 470.122589,322.135590 &#10;&#9;C465.424316,328.338837 462.459869,335.392853 461.195923,343.072784 &#10;&#9;C460.537476,347.073730 458.327667,348.806976 454.425079,348.858795 &#10;&#9;C450.593872,348.909668 446.763672,349.053009 442.933838,349.179749 &#10;&#9;C440.253632,349.268463 438.350067,350.379211 438.378601,353.324036 &#10;&#9;C438.406586,356.216278 440.548218,356.804047 442.877136,356.843292 &#10;&#9;C446.708282,356.907867 450.541260,356.861267 454.373444,356.866547 &#10;&#9;C458.207367,356.871826 460.592621,358.470459 461.353394,362.497986 &#10;&#9;C462.698029,369.616608 465.521393,376.203979 469.566956,382.193024 &#10;&#9;C471.531647,385.101471 471.340210,387.378723 469.413300,390.318634 &#10;&#9;C461.926666,401.741241 454.638306,413.296814 447.464600,424.919189 &#10;&#9;C445.837280,427.555664 443.926575,428.443573 440.951385,428.404724 &#10;&#9;C429.955444,428.261017 418.955261,428.202911 407.960327,428.363525 &#10;&#9;C404.373352,428.415863 402.165619,427.238464 400.320496,424.090240 &#10;&#9;C395.774658,416.333710 390.946930,408.736938 386.058563,401.188538 &#10;&#9;C382.612488,395.867249 380.399048,395.924591 376.985474,401.353577 &#10;&#9;C372.109100,409.108978 367.335815,416.931122 362.646576,424.801086 &#10;&#9;C361.231018,427.176819 359.576752,428.370148 356.672211,428.359009 &#10;&#9;C332.677856,428.267029 308.683044,428.307831 284.688385,428.282837 &#10;&#9;C283.226532,428.281311 281.663910,428.520050 280.064667,427.035828 &#10;&#9;C281.000336,420.499207 283.629333,414.216125 286.171997,407.966217 &#10;&#9;C292.718689,391.874420 300.846588,376.619812 310.628204,362.223907 &#10;&#9;C312.880035,358.909882 315.319611,357.729218 319.233215,357.744202 &#10;&#9;C350.558990,357.864319 381.885498,357.795685 413.211761,357.773499 &#10;&#9;C414.875305,357.772308 416.551178,357.776276 418.199188,357.586121 &#10;&#9;C420.350616,357.337860 420.684143,355.703613 420.691254,353.905518 &#10;&#9;C420.698212,352.147247 420.566620,350.407440 418.333496,350.173584 &#10;&#9;C415.190887,349.844391 412.032349,349.474609 408.879608,349.465302 &#10;&#9;C382.052429,349.386292 355.225067,349.391113 328.397766,349.347931 &#10;&#9;C326.445282,349.344788 324.435181,349.633362 321.299805,348.268433 &#10;&#9;C363.480408,296.505066 417.037933,266.577209 482.640381,258.853973 &#10;&#9;C581.973938,247.159653 661.088501,300.232483 696.085938,349.010284 &#10;&#9;C690.428101,349.335602 685.254517,349.869110 680.078796,349.890167 &#10;&#9;C656.584534,349.985657 633.089661,349.922913 609.595093,349.963501 &#10;&#9;C607.518005,349.967072 605.057434,349.261993 603.682617,351.543365 &#10;&#9;C602.800781,353.006439 602.806213,354.825317 603.596924,356.360565 &#10;&#9;C604.660583,358.425323 606.776062,357.818512 608.523010,357.820984 &#10;&#9;C630.351440,357.852081 652.179932,357.838196 674.008423,357.832123 &#10;&#9;C682.506531,357.829742 691.005371,357.878143 699.502380,357.777344 &#10;&#9;C702.445129,357.742462 704.467224,358.765259 706.153687,361.259857 &#10;&#9;C718.913086,380.133087 729.398621,400.122345 736.245667,421.915741 &#10;&#9;C738.087158,427.777161 737.689087,428.319092 731.697571,428.330353 &#10;&#9;C710.202454,428.370758 688.706726,428.292236 667.212402,428.432037 &#10;&#9;C663.765869,428.454437 661.673035,427.241089 659.968384,424.333191 &#10;&#9;C655.503967,416.717896 650.923157,409.166016 646.194397,401.712158 &#10;&#9;C642.539795,395.951355 640.099976,396.042786 636.444397,401.868988 &#10;&#9;C631.752441,409.347137 627.082642,416.841003 622.543152,424.411957 &#10;&#9;C620.940002,427.085632 619.062500,428.471252 615.751099,428.416809 &#10;&#9;C604.756409,428.236023 593.756042,428.245331 582.760254,428.380951 &#10;&#9;C579.555969,428.420471 577.607300,427.311035 575.895813,424.560913 &#10;&#9;C568.591736,412.823792 561.124939,401.185822 553.553650,389.618896 &#10;&#9;C552.011353,387.262604 552.094360,385.582520 553.722778,383.381012 &#10;&#9;C558.349304,377.126251 561.225891,370.030182 562.734192,362.437469 &#10;&#9;C563.517090,358.496399 565.499390,356.689240 569.556763,356.858521 &#10;&#9;C573.214783,357.011200 576.886292,356.817230 580.551880,356.814789 &#10;&#9;C583.049072,356.813110 584.835571,355.971130 584.877319,353.161499 &#10;&#9;C584.918030,350.420380 583.309570,349.326508 580.745483,349.291779 &#10;&#9;C576.580322,349.235382 572.412964,349.048004 568.251160,349.135651 &#10;&#9;C565.013428,349.203857 563.247253,347.913422 562.901184,344.639618 &#10;&#9;C562.005249,336.163452 558.943665,328.499695 553.820312,321.722961 &#10;&#9;C552.114807,319.467072 552.580261,317.912018 554.376404,316.113800 &#10;&#9;C557.907410,312.578583 561.322144,308.927338 564.790527,305.329437 &#10;&#9;C566.569092,303.484528 566.914612,301.703064 564.853760,299.749298 &#10;&#9;C562.961975,297.955811 560.969666,297.645325 559.105713,299.433868 &#10;&#9;C555.504700,302.889099 551.996277,306.449829 548.603455,310.109558 &#10;&#9;C546.668945,312.196289 545.041260,312.456818 542.618958,310.726776 &#10;&#9;C535.761230,305.828979 528.179871,302.484192 519.806885,301.116699 &#10;&#9;C517.025757,300.662476 515.860535,299.068329 515.905151,296.283051 &#10;&#9;C515.977234,291.785675 515.914490,287.285858 515.885071,282.787231 &#10;&#9;C515.867676,280.119385 514.939697,278.233612 511.863434,278.221710 &#10;&#9;C508.944214,278.210388 507.547668,279.855164 507.461121,282.553680 &#10;&#9;C507.295624,287.713654 507.306213,292.879242 507.162720,298.486938 &#10;z" stroke="none" opacity="1.000000" fill="#FFFFFF"/>
<path d="M648.707336,553.335815 &#10;&#9;C656.356079,565.225220 663.799866,576.816284 671.153625,588.267151 &#10;&#9;C669.347046,590.442810 667.387085,590.017517 665.634705,590.019287 &#10;&#9;C614.327209,590.070129 563.019653,590.050293 511.712402,590.167114 &#10;&#9;C507.799011,590.176025 505.420471,588.990051 503.244781,585.555664 &#10;&#9;C479.537720,548.133118 455.664581,510.815643 431.745667,473.527954 &#10;&#9;C429.899261,470.649597 429.631104,468.434631 431.583801,465.411804 &#10;&#9;C438.540466,454.642853 445.199799,443.681854 451.989532,432.804718 &#10;&#9;C452.579803,431.859100 452.975220,430.610596 454.529083,430.681946 &#10;&#9;C456.135620,432.320465 454.648193,435.025024 457.115509,437.104645 &#10;&#9;C461.360474,433.549835 465.748871,429.874969 470.137207,426.200104 &#10;&#9;C474.613434,422.451660 475.870087,422.862701 477.175812,428.668884 &#10;&#9;C477.863037,431.724854 479.094543,434.784698 478.161041,437.973175 &#10;&#9;C477.699432,439.549835 476.367218,441.287262 478.325653,442.390076 &#10;&#9;C480.411285,443.564453 482.579651,442.900024 484.150299,441.024536 &#10;&#9;C487.892578,436.555847 491.593353,432.052155 495.291656,427.546875 &#10;&#9;C500.006195,421.803619 499.989319,421.803925 504.530884,427.455383 &#10;&#9;C506.073090,429.374420 507.671692,431.248138 509.244537,433.142578 &#10;&#9;C509.716492,433.059357 510.188416,432.976135 510.660370,432.892883 &#10;&#9;C510.660370,402.527893 510.660370,372.162872 510.660370,341.797852 &#10;&#9;C511.423828,341.547363 512.187317,341.296875 512.950745,341.046387 &#10;&#9;C558.134644,411.710052 603.318542,482.373718 648.707336,553.335815 &#10;z" stroke="none" opacity="1.000000" fill="#FFFFFF"/>
<path d="M496.058838,725.894714 &#10;&#9;C486.527191,714.402588 487.358276,705.238342 498.550842,695.928040 &#10;&#9;C507.250793,688.690979 517.524841,684.270020 527.720947,679.717957 &#10;&#9;C539.422852,674.493774 551.507019,670.063538 562.314636,662.987183 &#10;&#9;C578.012207,652.709229 577.373108,640.899963 560.601135,632.378845 &#10;&#9;C548.664246,626.314209 535.618286,623.195435 523.196777,618.416626 &#10;&#9;C520.567749,617.405212 517.888794,616.338379 515.541443,614.820007 &#10;&#9;C511.276733,612.061401 511.176086,607.821411 515.540222,605.248108 &#10;&#9;C522.472046,601.160767 529.966003,598.041931 538.131287,598.026855 &#10;&#9;C599.290771,597.913940 660.450684,597.962341 721.610413,597.968201 &#10;&#9;C723.248901,597.968384 724.954163,597.790710 726.149475,598.874084 &#10;&#9;C726.855408,600.152344 726.336304,601.047729 725.889893,601.927368 &#10;&#9;C689.344910,673.939636 632.007629,718.910828 552.564941,735.034119 &#10;&#9;C540.805847,737.420715 528.821106,738.131836 516.872314,739.007629 &#10;&#9;C514.100281,739.210754 511.669281,738.540405 509.315430,737.021484 &#10;&#9;C504.521515,733.927917 500.227631,730.271790 496.058838,725.894714 &#10;z" stroke="none" opacity="1.000000" fill="#FFFFFF"/>
<path d="M381.603760,456.007629 &#10;&#9;C381.602814,441.598083 381.602814,427.686493 381.602814,413.774872 &#10;&#9;C382.264648,413.527924 382.926483,413.280945 383.588287,413.033997 &#10;&#9;C420.898560,471.472748 458.208832,529.911499 495.444855,588.234009 &#10;&#9;C493.144928,590.522461 491.040466,590.076904 489.121521,590.077942 &#10;&#9;C423.158264,590.113037 357.195007,590.082520 291.231873,590.184387 &#10;&#9;C287.047699,590.190857 285.386627,588.442871 283.580658,584.793030 &#10;&#9;C279.526031,576.598938 280.646454,570.111694 285.795013,562.425781 &#10;&#9;C301.917084,538.358521 317.108429,513.668030 332.704010,489.246887 &#10;&#9;C333.735382,487.631775 334.442108,485.616425 336.852203,484.796875 &#10;&#9;C337.173126,486.291077 337.470428,487.675262 337.850922,489.446716 &#10;&#9;C343.870392,487.081848 347.031769,481.017395 353.033539,478.932648 &#10;&#9;C356.538849,483.095215 355.713226,489.015320 359.371368,493.196381 &#10;&#9;C364.667603,488.880157 367.471130,482.464417 372.946686,478.655090 &#10;&#9;C376.206787,479.825439 376.750977,483.914734 380.461151,484.819733 &#10;&#9;C382.064270,475.342560 381.497192,465.905975 381.603760,456.007629 &#10;z" stroke="none" opacity="1.000000" fill="#FFFFFF"/>
<path d="M362.000000,597.894287 &#10;&#9;C406.560547,597.893982 450.621063,597.893982 494.666901,597.893982 &#10;&#9;C494.830139,600.523438 493.279358,600.214783 492.313995,600.544067 &#10;&#9;C484.757996,603.121765 476.969696,605.164551 470.344116,609.902649 &#10;&#9;C464.553253,614.043884 464.564240,618.517517 470.425873,622.602478 &#10;&#9;C475.120056,625.873901 480.591034,627.543884 485.815674,629.702515 &#10;&#9;C489.050476,631.039001 492.341797,632.244690 495.229645,634.276428 &#10;&#9;C500.807281,638.200500 500.990265,643.787109 495.435486,647.779175 &#10;&#9;C488.554565,652.724243 480.395966,654.814575 472.475952,657.317200 &#10;&#9;C453.907471,663.184692 435.116852,668.377197 416.985504,675.562805 &#10;&#9;C403.165009,681.040100 389.722351,687.279358 378.095886,696.753174 &#10;&#9;C375.379791,698.966370 373.547333,697.539062 371.462280,696.124084 &#10;&#9;C355.095612,685.017212 340.655365,671.739929 327.526306,657.002808 &#10;&#9;C313.251770,640.979980 301.589050,623.196228 292.066895,603.991882 &#10;&#9;C291.339325,602.524536 290.399811,601.075989 290.623016,597.894531 &#10;&#9;C314.168365,597.894531 337.834167,597.894531 362.000000,597.894287 &#10;z" stroke="none" opacity="1.000000" fill="#FFFFFF"/>
<path d="M738.032471,571.951660 &#10;&#9;C736.286499,576.868469 734.568542,581.385498 733.074951,585.975464 &#10;&#9;C732.164978,588.771790 730.457336,589.953735 727.551514,589.947327 &#10;&#9;C713.718750,589.916870 699.884827,589.888306 686.053589,590.048950 &#10;&#9;C682.462463,590.090576 680.727173,588.130920 679.022156,585.461731 &#10;&#9;C658.481750,553.305481 637.883667,521.186096 617.304626,489.054443 &#10;&#9;C613.889893,483.722809 610.680908,478.246552 607.020996,473.089661 &#10;&#9;C604.840759,470.017639 604.900757,467.529846 606.938232,464.512054 &#10;&#9;C608.955994,461.523346 610.358398,458.112854 612.788757,455.617279 &#10;&#9;C614.874390,456.139893 613.767212,458.303101 615.903564,459.027863 &#10;&#9;C618.027161,457.473633 620.565125,455.690338 623.022461,453.802155 &#10;&#9;C628.120300,449.885162 628.022888,449.925262 631.884705,454.819000 &#10;&#9;C634.081116,457.602356 635.772278,460.911621 639.655396,463.228546 &#10;&#9;C640.955017,445.984772 640.710754,429.307861 640.367737,411.981567 &#10;&#9;C643.530090,413.145325 644.490234,415.298401 645.703857,417.131897 &#10;&#9;C672.102783,457.015747 696.855957,497.944397 722.583740,538.254517 &#10;&#9;C727.245544,545.558472 731.674622,553.026733 736.664978,560.098877 &#10;&#9;C739.350647,563.905029 740.339417,567.400574 738.032471,571.951660 &#10;z" stroke="none" opacity="1.000000" fill="#FFFFFF"/>
<path d="M268.594818,485.658813 &#10;&#9;C268.898651,470.140228 271.602203,455.457550 275.243805,440.904938 &#10;&#9;C275.934845,438.143250 277.054535,436.560364 280.244293,436.573944 &#10;&#9;C303.728210,436.673920 327.212616,436.646057 350.696838,436.689606 &#10;&#9;C351.646179,436.691376 352.594971,437.005096 353.416687,437.150909 &#10;&#9;C354.185394,438.874359 353.197174,439.946045 352.522522,441.033203 &#10;&#9;C341.109711,459.423279 329.586121,477.745453 318.312134,496.220032 &#10;&#9;C315.926331,500.129608 313.075562,501.500946 308.564087,501.392853 &#10;&#9;C296.912048,501.113739 285.245605,501.165375 273.591125,501.397369 &#10;&#9;C269.199829,501.484741 267.433380,499.894226 267.867401,495.584473 &#10;&#9;C268.184052,492.440063 268.343903,489.279846 268.594818,485.658813 &#10;z" stroke="none" opacity="1.000000" fill="#FFFFFF"/>
<path d="M703.068359,491.901245 &#10;&#9;C692.161682,474.154877 680.479126,457.316132 670.591797,439.368958 &#10;&#9;C670.307922,438.853668 670.389221,438.137177 670.316406,437.627899 &#10;&#9;C671.799011,436.376038 673.356934,436.714966 674.802734,436.711945 &#10;&#9;C695.113464,436.669434 715.424805,436.736511 735.734497,436.580627 &#10;&#9;C739.337036,436.553009 741.149414,437.657959 742.041931,441.258240 &#10;&#9;C746.381287,458.761963 748.482239,476.547607 749.077881,494.528717 &#10;&#9;C749.281311,500.669952 748.718384,501.138000 742.698486,501.180664 &#10;&#9;C734.874146,501.236145 726.988525,500.609497 719.241394,501.389587 &#10;&#9;C711.269592,502.192322 706.170166,499.487457 703.068359,491.901245 &#10;z" stroke="none" opacity="1.000000" fill="#FFFFFF"/>
<path d="M488.596954,358.565674 &#10;&#9;C484.731140,364.772369 481.060364,370.670502 477.372589,376.595917 &#10;&#9;C467.804901,369.612793 463.652283,342.582672 477.780090,325.006134 &#10;&#9;C493.342865,305.644257 521.210327,303.087036 540.872070,319.755402 &#10;&#9;C556.940674,333.377594 560.267212,362.503754 547.298584,376.608765 &#10;&#9;C544.737244,376.284088 544.118835,373.908936 543.007446,372.207001 &#10;&#9;C534.183289,358.694550 525.453064,345.120667 516.685669,331.571106 &#10;&#9;C512.023193,324.365479 510.359528,324.355347 505.636627,331.704193 &#10;&#9;C499.969818,340.521820 494.402435,349.403290 488.596954,358.565674 &#10;z" stroke="none" opacity="1.000000" fill="#FFFFFF"/>
<path d="M274.740234,555.951660 &#10;&#9;C271.276245,541.799805 269.044983,527.877747 268.582520,513.686951 &#10;&#9;C268.494690,510.991760 268.836609,509.075745 272.131165,509.080048 &#10;&#9;C283.455933,509.094818 294.780823,509.043121 306.105652,509.046234 &#10;&#9;C307.100433,509.046509 308.108948,509.228943 309.221649,510.798798 &#10;&#9;C298.850098,527.352173 288.317078,544.163330 277.802826,560.944458 &#10;&#9;C275.142303,560.081360 275.578156,557.860718 274.740234,555.951660 &#10;z" stroke="none" opacity="1.000000" fill="#FFFFFF"/>
<path d="M747.254700,529.888550 &#10;&#9;C745.614868,537.574707 745.614075,545.156128 742.362976,553.418335 &#10;&#9;C732.048767,539.210205 724.085266,524.646240 714.992188,510.820770 &#10;&#9;C715.113892,510.251923 715.235596,509.683105 715.357300,509.114288 &#10;&#9;C722.381165,509.114288 729.408142,509.249420 736.428101,509.084808 &#10;&#9;C749.153931,508.786377 749.299866,508.861542 748.133545,521.518616 &#10;&#9;C747.889893,524.163269 747.573120,526.801147 747.254700,529.888550 &#10;z" stroke="none" opacity="1.000000" fill="#FFFFFF"/>
<path d="M594.634277,453.270477 &#10;&#9;C591.978394,449.018188 589.438843,445.116486 587.055786,441.121490 &#10;&#9;C585.885376,439.159393 585.562012,436.950684 588.723633,436.882935 &#10;&#9;C596.800842,436.709747 604.884216,436.825195 613.935181,436.825195 &#10;&#9;C609.725403,445.354095 604.819946,452.280579 600.293701,459.559845 &#10;&#9;C596.895874,458.514435 596.440491,455.518799 594.634277,453.270477 &#10;M603.286377,445.100800 &#10;&#9;C603.398560,441.255493 600.269470,441.791046 598.038391,441.420990 &#10;&#9;C596.528442,441.170532 594.880920,441.824677 594.502930,443.521393 &#10;&#9;C593.962830,445.945679 595.494690,447.854156 597.251770,448.982056 &#10;&#9;C600.783203,451.248962 601.702148,447.941132 603.286377,445.100800 &#10;z" stroke="none" opacity="1.000000" fill="#FFFFFF"/>
<path d="M422.045105,439.534790 &#10;&#9;C420.884583,441.679810 417.489624,442.398987 418.967529,445.426758 &#10;&#9;C420.137848,447.824310 420.584015,451.710602 424.142273,451.220612 &#10;&#9;C427.845642,450.710632 428.356232,446.924469 428.830841,443.810486 &#10;&#9;C429.773865,437.623260 432.618958,435.731415 439.182831,437.823517 &#10;&#9;C434.488495,445.502808 429.880920,453.040161 424.765106,461.408936 &#10;&#9;C418.860168,453.439117 414.064087,445.924103 409.259979,436.972931 &#10;&#9;C414.338440,437.309845 418.688416,434.493988 422.045105,439.534790 &#10;z" stroke="none" opacity="1.000000" fill="#FFFFFF"/>
</svg>